<svg xmlns="http://www.w3.org/2000/svg" xmlns:xlink="http://www.w3.org/1999/xlink" width="70" zoomAndPan="magnify" viewBox="0 0 52.5 52.499999" height="70" preserveAspectRatio="xMidYMid meet" version="1.0"><defs><clipPath id="c3b4a3fe72"><path d="M 0 6.0625 L 52.003906 6.0625 L 52.003906 26 L 0 26 Z M 0 6.0625 " clip-rule="nonzero"/></clipPath><clipPath id="26f317b586"><path d="M 0 14 L 52.003906 14 L 52.003906 46.5625 L 0 46.5625 Z M 0 14 " clip-rule="nonzero"/></clipPath></defs><g clip-path="url(#c3b4a3fe72)"><path fill="#9f6f45" d="M 26.25 25.976562 L 52.492188 10.179688 L 52.492188 10.113281 C 52.492188 9.84375 52.464844 9.582031 52.414062 9.320312 C 52.363281 9.058594 52.285156 8.808594 52.183594 8.5625 C 52.082031 8.316406 51.957031 8.082031 51.8125 7.859375 C 51.664062 7.640625 51.496094 7.4375 51.308594 7.246094 C 51.121094 7.058594 50.917969 6.890625 50.695312 6.742188 C 50.476562 6.597656 50.242188 6.472656 50 6.371094 C 49.753906 6.269531 49.5 6.191406 49.242188 6.140625 C 48.980469 6.085938 48.71875 6.0625 48.453125 6.0625 L 4.046875 6.0625 C 3.78125 6.0625 3.519531 6.085938 3.257812 6.140625 C 3 6.191406 2.746094 6.269531 2.5 6.371094 C 2.257812 6.472656 2.023438 6.597656 1.804688 6.742188 C 1.582031 6.890625 1.378906 7.058594 1.191406 7.246094 C 1.003906 7.4375 0.835938 7.640625 0.6875 7.859375 C 0.542969 8.082031 0.417969 8.316406 0.316406 8.5625 C 0.214844 8.808594 0.136719 9.058594 0.0859375 9.320312 C 0.0351562 9.582031 0.0078125 9.84375 0.0078125 10.113281 L 0.0078125 10.179688 Z M 26.25 25.976562 " fill-opacity="1" fill-rule="nonzero"/></g><g clip-path="url(#26f317b586)"><path fill="#9f6f45" d="M 27.289062 30.070312 C 26.96875 30.265625 26.625 30.359375 26.25 30.359375 C 25.875 30.359375 25.53125 30.265625 25.210938 30.070312 L 0.0078125 14.902344 L 0.0078125 42.511719 C 0.0078125 42.777344 0.0351562 43.039062 0.0859375 43.300781 C 0.136719 43.5625 0.214844 43.816406 0.316406 44.0625 C 0.417969 44.308594 0.542969 44.539062 0.6875 44.761719 C 0.835938 44.984375 1.003906 45.1875 1.191406 45.375 C 1.378906 45.5625 1.582031 45.730469 1.804688 45.878906 C 2.023438 46.027344 2.257812 46.152344 2.5 46.253906 C 2.746094 46.355469 3 46.433594 3.257812 46.484375 C 3.519531 46.535156 3.78125 46.5625 4.046875 46.5625 L 48.453125 46.5625 C 48.71875 46.5625 48.980469 46.535156 49.242188 46.484375 C 49.5 46.433594 49.753906 46.355469 50 46.253906 C 50.242188 46.152344 50.476562 46.027344 50.695312 45.878906 C 50.917969 45.730469 51.121094 45.5625 51.308594 45.375 C 51.496094 45.1875 51.664062 44.984375 51.8125 44.761719 C 51.957031 44.539062 52.082031 44.308594 52.183594 44.0625 C 52.285156 43.816406 52.363281 43.5625 52.414062 43.300781 C 52.464844 43.039062 52.492188 42.777344 52.492188 42.511719 L 52.492188 14.902344 Z M 27.289062 30.070312 " fill-opacity="1" fill-rule="nonzero"/></g></svg>