<svg xmlns="http://www.w3.org/2000/svg" xmlns:xlink="http://www.w3.org/1999/xlink" width="70" zoomAndPan="magnify" viewBox="0 0 52.5 52.499999" height="70" preserveAspectRatio="xMidYMid meet" version="1.0"><defs><clipPath id="19e6f88087"><path d="M 0 0 L 52.003906 0 L 52.003906 52.003906 L 0 52.003906 Z M 0 0 " clip-rule="nonzero"/></clipPath></defs><path fill="#9f6f45" d="M 26.25 20.433594 C 23.046875 20.433594 20.433594 23.046875 20.433594 26.25 C 20.433594 29.453125 23.046875 32.066406 26.25 32.066406 C 29.453125 32.066406 32.066406 29.453125 32.066406 26.25 C 32.066406 23.046875 29.453125 20.433594 26.25 20.433594 Z M 26.25 20.433594 " fill-opacity="1" fill-rule="nonzero"/><path fill="#9f6f45" d="M 34.066406 11.976562 L 18.433594 11.976562 C 14.886719 11.976562 11.976562 14.863281 11.976562 18.433594 L 11.976562 34.066406 C 11.976562 37.613281 14.863281 40.523438 18.433594 40.523438 L 34.066406 40.523438 C 37.613281 40.523438 40.523438 37.636719 40.523438 34.066406 L 40.523438 18.433594 C 40.5 14.863281 37.613281 11.976562 34.066406 11.976562 Z M 26.25 35 C 21.410156 35 17.476562 31.066406 17.476562 26.226562 C 17.476562 21.386719 21.410156 17.453125 26.25 17.453125 C 31.089844 17.453125 35.023438 21.386719 35.023438 26.226562 C 35 31.066406 31.066406 35 26.25 35 Z M 35.636719 18.933594 C 34.476562 18.933594 33.523438 17.976562 33.523438 16.816406 C 33.523438 15.660156 34.476562 14.703125 35.636719 14.703125 C 36.796875 14.703125 37.75 15.660156 37.75 16.816406 C 37.75 18 36.816406 18.933594 35.636719 18.933594 Z M 35.636719 18.933594 " fill-opacity="1" fill-rule="nonzero"/><g clip-path="url(#19e6f88087)"><path fill="#9f6f45" d="M 26.25 0 C 11.75 0 0 11.75 0 26.25 C 0 40.75 11.75 52.5 26.25 52.5 C 40.75 52.5 52.5 40.75 52.5 26.25 C 52.476562 11.75 40.726562 0 26.25 0 Z M 43.453125 34.066406 C 43.453125 39.25 39.226562 43.476562 34.046875 43.476562 L 18.433594 43.476562 C 13.25 43.476562 9.023438 39.25 9.023438 34.066406 L 9.023438 18.433594 C 9.023438 13.25 13.25 9.023438 18.433594 9.023438 L 34.066406 9.023438 C 39.25 9.023438 43.476562 13.25 43.476562 18.433594 L 43.476562 34.066406 Z M 43.453125 34.066406 " fill-opacity="1" fill-rule="nonzero"/></g></svg>