<svg xmlns="http://www.w3.org/2000/svg" xmlns:xlink="http://www.w3.org/1999/xlink" width="70" zoomAndPan="magnify" viewBox="0 0 52.5 52.499999" height="70" preserveAspectRatio="xMidYMid meet" version="1.0"><defs><clipPath id="51bfe7a756"><path d="M 9.308594 0 L 43.058594 0 L 43.058594 52.003906 L 9.308594 52.003906 Z M 9.308594 0 " clip-rule="nonzero"/></clipPath></defs><g clip-path="url(#51bfe7a756)"><path fill="#9f6f45" d="M 26.265625 0 C 17.003906 0 9.460938 7.570312 9.460938 16.867188 C 9.460938 32.804688 23.683594 50.789062 24.292969 51.550781 C 24.765625 52.144531 25.488281 52.5 26.265625 52.5 C 27.042969 52.5 27.769531 52.144531 28.238281 51.550781 C 28.847656 50.789062 43.070312 32.804688 43.070312 16.867188 C 43.070312 7.570312 35.527344 0 26.265625 0 Z M 26.265625 26.265625 C 21.105469 26.265625 16.902344 22.050781 16.902344 16.867188 C 16.902344 11.683594 21.105469 7.46875 26.265625 7.46875 C 31.429688 7.46875 35.628906 11.683594 35.628906 16.867188 C 35.628906 22.050781 31.429688 26.265625 26.265625 26.265625 Z M 26.265625 26.265625 " fill-opacity="1" fill-rule="nonzero"/></g><path fill="#9f6f45" d="M 26.265625 12.550781 C 23.886719 12.550781 21.964844 14.480469 21.964844 16.867188 C 21.964844 19.238281 23.886719 21.1875 26.265625 21.1875 C 28.644531 21.1875 30.566406 19.238281 30.566406 16.867188 C 30.566406 14.480469 28.644531 12.550781 26.265625 12.550781 Z M 26.265625 12.550781 " fill-opacity="1" fill-rule="nonzero"/></svg>