<svg xmlns="http://www.w3.org/2000/svg" xmlns:xlink="http://www.w3.org/1999/xlink" width="70" zoomAndPan="magnify" viewBox="0 0 52.5 52.499999" height="70" preserveAspectRatio="xMidYMid meet" version="1.0"><defs><clipPath id="1edb0aca0c"><path d="M 0 4 L 49 4 L 49 52.003906 L 0 52.003906 Z M 0 4 " clip-rule="nonzero"/></clipPath><clipPath id="0e09d4c96b"><path d="M 22 0.667969 L 52.003906 0.667969 L 52.003906 31 L 22 31 Z M 22 0.667969 " clip-rule="nonzero"/></clipPath></defs><g clip-path="url(#1edb0aca0c)"><path fill="#9f6f45" d="M 47.226562 39.710938 C 44.558594 38.84375 41.144531 37.730469 37.792969 36.921875 C 37.109375 36.738281 35.558594 36.738281 34.875 37.851562 L 32.765625 41.074219 C 32.578125 41.324219 32.332031 41.449219 32.082031 41.507812 C 31.460938 41.570312 30.78125 41.449219 30.285156 41.015625 C 28.917969 40.144531 23.644531 35.3125 20.539062 32.335938 C 17.4375 29.113281 12.722656 23.910156 11.730469 22.546875 C 11.355469 22.050781 11.171875 21.367188 11.230469 20.75 C 11.292969 20.4375 11.417969 20.191406 11.667969 20.066406 L 14.894531 17.960938 C 15.636719 17.464844 16.011719 15.730469 15.824219 15.046875 C 15.203125 12.445312 14.398438 9.53125 13.09375 5.6875 C 12.785156 4.882812 11.542969 3.890625 9.558594 4.574219 C 6.886719 5.6875 4.40625 7.300781 2.296875 9.40625 C 1.675781 10.027344 1.117188 10.648438 0.621094 11.328125 C 0.496094 11.453125 0.433594 11.640625 0.433594 11.761719 C 0 19.507812 5.210938 29.921875 13.714844 38.347656 C 21.90625 46.902344 32.394531 52.417969 40.273438 52.417969 C 40.585938 52.417969 40.832031 52.417969 41.144531 52.417969 C 41.328125 52.417969 41.453125 52.355469 41.578125 52.230469 C 42.261719 51.671875 42.882812 51.117188 43.5 50.558594 C 45.175781 48.882812 46.542969 46.964844 47.660156 44.917969 C 47.90625 44.359375 48.15625 43.863281 48.402344 43.308594 C 48.652344 42.4375 49.148438 40.332031 47.226562 39.710938 Z M 10.175781 5.9375 C 10.734375 5.75 11.480469 5.875 11.667969 6.246094 C 12.90625 10.027344 13.777344 12.878906 14.335938 15.417969 C 14.460938 15.851562 14.335938 16.472656 14.023438 16.71875 L 13.28125 17.214844 C 10.921875 14.054688 9.496094 10.335938 9.121094 6.433594 C 9.121094 6.433594 9.804688 6.125 10.175781 5.9375 Z M 46.976562 42.6875 C 46.851562 43.058594 46.667969 43.367188 46.542969 43.679688 C 39.28125 42.5 36.488281 40.457031 35.683594 39.710938 L 36.242188 38.84375 C 36.550781 38.410156 37.109375 38.410156 37.542969 38.535156 C 40.710938 39.277344 44.121094 40.394531 46.730469 41.199219 C 47.164062 41.324219 47.164062 42.128906 46.976562 42.6875 Z M 46.976562 42.6875 " fill-opacity="1" fill-rule="nonzero"/></g><g clip-path="url(#0e09d4c96b)"><path fill="#9f6f45" d="M 23.707031 0.667969 C 23.269531 0.667969 22.960938 1.042969 22.960938 1.414062 C 22.960938 1.785156 23.332031 2.15625 23.707031 2.15625 C 38.785156 2.15625 50.949219 14.367188 50.949219 29.363281 C 50.949219 29.796875 51.320312 30.105469 51.691406 30.105469 C 52.066406 30.105469 52.4375 29.734375 52.4375 29.363281 C 52.5 13.558594 39.59375 0.730469 23.707031 0.667969 Z M 23.707031 0.667969 " fill-opacity="1" fill-rule="nonzero"/></g><path fill="#9f6f45" d="M 37.171875 16.039062 C 40.769531 19.570312 42.757812 24.40625 42.757812 29.488281 C 42.757812 29.921875 43.128906 30.230469 43.5 30.230469 C 43.875 30.230469 44.246094 29.859375 44.246094 29.488281 C 44.246094 18.144531 35 8.910156 23.644531 8.910156 C 23.210938 8.910156 22.898438 9.285156 22.898438 9.65625 C 22.898438 10.089844 23.210938 10.398438 23.582031 10.460938 C 23.582031 10.460938 23.644531 10.460938 23.644531 10.460938 C 28.730469 10.460938 33.574219 12.445312 37.171875 16.039062 Z M 37.171875 16.039062 " fill-opacity="1" fill-rule="nonzero"/><path fill="#9f6f45" d="M 23.707031 19.136719 C 29.414062 19.136719 34.070312 23.785156 34.070312 29.488281 C 34.070312 29.921875 34.441406 30.230469 34.8125 30.230469 C 35.1875 30.230469 35.558594 29.859375 35.558594 29.488281 C 35.558594 22.917969 30.222656 17.589844 23.644531 17.589844 C 23.210938 17.589844 22.898438 17.960938 22.898438 18.332031 C 22.898438 18.703125 23.269531 19.136719 23.707031 19.136719 Z M 23.707031 19.136719 " fill-opacity="1" fill-rule="nonzero"/></svg>