<svg xmlns="http://www.w3.org/2000/svg" xmlns:xlink="http://www.w3.org/1999/xlink" width="70" zoomAndPan="magnify" viewBox="0 0 52.5 52.499999" height="70" preserveAspectRatio="xMidYMid meet" version="1.0"><defs><clipPath id="c9ef0e6979"><path d="M 0 0 L 52.003906 0 L 52.003906 52.003906 L 0 52.003906 Z M 0 0 " clip-rule="nonzero"/></clipPath></defs><g clip-path="url(#c9ef0e6979)"><path fill="#9f6f45" d="M 26.25 0 C 11.8125 0 0 11.8125 0 26.25 C 0 40.6875 11.8125 52.5 26.25 52.5 C 40.6875 52.5 52.5 40.6875 52.5 26.25 C 52.5 11.8125 40.6875 0 26.25 0 Z M 36.898438 37.816406 C 36.40625 37.816406 36.160156 37.570312 35.664062 37.320312 C 31.960938 35.097656 27.269531 33.863281 22.332031 33.863281 C 19.617188 33.863281 16.65625 34.359375 14.183594 34.851562 C 13.691406 34.851562 13.199219 35.097656 12.953125 35.097656 C 11.964844 35.097656 11.222656 34.359375 11.222656 33.371094 C 11.222656 32.382812 11.71875 31.644531 12.703125 31.644531 C 15.914062 30.902344 19.125 30.410156 22.582031 30.410156 C 28.261719 30.410156 33.449219 31.890625 37.890625 34.359375 C 38.386719 34.855469 38.878906 35.101562 38.878906 36.089844 C 38.378906 37.320312 37.640625 37.816406 36.898438 37.816406 Z M 39.613281 30.902344 C 39.121094 30.902344 38.625 30.65625 38.132812 30.410156 C 33.9375 27.695312 28.007812 26.214844 21.589844 26.214844 C 18.378906 26.214844 15.417969 26.707031 13.195312 27.199219 C 12.703125 27.445312 12.457031 27.445312 11.960938 27.445312 C 10.726562 27.445312 9.984375 26.460938 9.984375 25.46875 C 9.984375 24.238281 10.480469 23.742188 11.710938 23.246094 C 14.675781 22.507812 17.640625 21.765625 21.835938 21.765625 C 28.75 21.765625 35.167969 23.492188 40.601562 26.703125 C 41.34375 27.199219 41.835938 27.9375 41.835938 28.679688 C 41.589844 29.914062 40.851562 30.902344 39.613281 30.902344 Z M 42.824219 23 C 42.332031 23 42.085938 22.753906 41.34375 22.507812 C 36.40625 19.789062 29.246094 18.0625 22.332031 18.0625 C 18.875 18.0625 15.167969 18.554688 11.960938 19.296875 C 11.464844 19.296875 11.21875 19.542969 10.480469 19.542969 C 9 19.792969 8.007812 18.554688 8.007812 17.074219 C 8.007812 15.59375 8.75 14.851562 9.734375 14.605469 C 13.6875 13.617188 17.886719 13.125 22.332031 13.125 C 29.984375 13.125 37.886719 14.851562 44.0625 18.0625 C 44.800781 18.554688 45.542969 19.296875 45.542969 20.53125 C 45.292969 22.011719 44.304688 23 42.824219 23 Z M 42.824219 23 " fill-opacity="1" fill-rule="nonzero"/></g></svg>