<svg xmlns="http://www.w3.org/2000/svg" xmlns:xlink="http://www.w3.org/1999/xlink" width="70" zoomAndPan="magnify" viewBox="0 0 52.5 52.499999" height="70" preserveAspectRatio="xMidYMid meet" version="1.0"><defs><clipPath id="779baa0aec"><path d="M 0 0 L 52.003906 0 L 52.003906 52.003906 L 0 52.003906 Z M 0 0 " clip-rule="nonzero"/></clipPath></defs><g clip-path="url(#779baa0aec)"><path fill="#9f6f45" d="M 26.25 0 C 11.75 0 0 11.75 0 26.25 C 0 40.75 11.75 52.5 26.25 52.5 C 40.75 52.5 52.5 40.75 52.5 26.25 C 52.476562 11.75 40.726562 0 26.25 0 Z M 41.363281 33.589844 C 41.066406 35.523438 39.386719 36.933594 37.433594 36.933594 L 15.046875 36.933594 C 13.089844 36.933594 11.410156 35.523438 11.113281 33.589844 C 10.839844 31.796875 10.566406 29.296875 10.546875 26.226562 C 10.566406 23.160156 10.816406 20.683594 11.113281 18.863281 C 11.410156 16.933594 13.089844 15.523438 15.046875 15.523438 L 37.433594 15.523438 C 39.386719 15.523438 41.066406 16.933594 41.363281 18.863281 C 41.636719 20.660156 41.910156 23.160156 41.933594 26.226562 C 41.910156 29.296875 41.636719 31.796875 41.363281 33.589844 Z M 41.363281 33.589844 " fill-opacity="1" fill-rule="nonzero"/></g><path fill="#9f6f45" d="M 22.933594 21.976562 L 22.933594 30.5 L 30.863281 26.25 Z M 22.933594 21.976562 " fill-opacity="1" fill-rule="nonzero"/></svg>