<svg xmlns="http://www.w3.org/2000/svg" xmlns:xlink="http://www.w3.org/1999/xlink" width="500" zoomAndPan="magnify" viewBox="0 0 375 374.999991" height="500" preserveAspectRatio="xMidYMid meet" version="1.0"><defs><g/><clipPath id="4335f709e2"><path d="M 115.574219 90.382812 L 259.574219 90.382812 L 259.574219 234.382812 L 115.574219 234.382812 Z M 115.574219 90.382812 " clip-rule="nonzero"/></clipPath></defs><g clip-path="url(#4335f709e2)"><path fill="#FFFFFF" d="M 224.324219 193.320312 L 224.324219 165.15625 L 253.554688 165.15625 C 252.171875 180.402344 239.714844 192.488281 224.324219 193.320312 Z M 190.347656 228.363281 L 190.347656 199.132812 L 218.511719 199.132812 C 217.675781 214.523438 205.59375 226.980469 190.347656 228.363281 Z M 156.457031 199.132812 L 184.621094 199.132812 L 184.621094 228.363281 C 169.402344 226.980469 157.320312 214.523438 156.457031 199.132812 Z M 121.441406 165.15625 L 150.671875 165.15625 L 150.671875 193.320312 C 135.28125 192.488281 122.824219 180.402344 121.441406 165.15625 Z M 150.671875 131.265625 L 150.671875 159.429688 L 121.441406 159.429688 C 122.824219 144.210938 135.28125 132.128906 150.671875 131.265625 Z M 184.648438 96.253906 L 184.648438 125.484375 L 156.484375 125.484375 C 157.320312 110.089844 169.402344 97.632812 184.648438 96.253906 Z M 218.511719 125.484375 L 190.347656 125.484375 L 190.347656 96.253906 C 205.59375 97.632812 217.675781 110.089844 218.511719 125.484375 Z M 211.261719 159.460938 C 208.011719 158.511719 203.351562 156.554688 199.035156 152.582031 C 193.882812 147.835938 191.496094 142.398438 190.375 138.574219 L 190.375 131.238281 L 218.625 131.238281 L 218.625 159.488281 L 211.261719 159.488281 Z M 187.554688 177.527344 C 186.03125 174.476562 183.84375 171.226562 180.679688 168.175781 C 178.0625 165.644531 175.300781 163.804688 172.710938 162.453125 C 175.875 160.925781 179.296875 158.65625 182.433594 155.257812 C 184.851562 152.640625 186.578125 149.878906 187.785156 147.261719 C 189.453125 150.367188 191.8125 153.707031 195.152344 156.753906 C 197.480469 158.914062 200.128906 160.753906 202.945312 162.222656 C 199.925781 163.746094 196.703125 165.902344 193.683594 169.011719 C 190.980469 171.832031 188.992188 174.765625 187.554688 177.527344 Z M 156.371094 131.179688 L 184.621094 131.179688 L 184.621094 138.660156 C 183.929688 142.054688 182.289062 146.917969 178.175781 151.40625 C 173.140625 156.871094 167.128906 158.796875 163.820312 159.460938 L 156.339844 159.460938 L 156.339844 131.179688 Z M 156.371094 165.15625 L 163.792969 165.15625 C 167.246094 166.019531 172.222656 167.949219 176.738281 172.289062 C 181.859375 177.210938 183.871094 182.878906 184.648438 186.015625 L 184.648438 193.410156 L 156.398438 193.410156 L 156.398438 165.15625 Z M 218.625 193.4375 L 190.375 193.4375 L 190.375 186.070312 C 191.324219 182.589844 193.367188 177.585938 197.796875 173.066406 C 202.429688 168.320312 207.609375 166.191406 211.234375 165.214844 L 218.597656 165.214844 L 218.597656 193.4375 Z M 253.554688 159.460938 L 224.324219 159.460938 L 224.324219 131.292969 C 239.714844 132.128906 252.171875 144.210938 253.554688 159.460938 Z M 259.421875 162.308594 C 259.421875 142.542969 243.773438 126.433594 224.238281 125.570312 C 223.375 106.035156 207.234375 90.382812 187.5 90.382812 C 167.761719 90.382812 151.621094 106.035156 150.757812 125.570312 C 131.222656 126.433594 115.574219 142.542969 115.574219 162.308594 C 115.574219 182.074219 131.222656 198.183594 150.757812 199.046875 C 151.621094 218.582031 167.761719 234.230469 187.5 234.230469 C 207.234375 234.230469 223.375 218.582031 224.238281 199.046875 C 243.773438 198.183594 259.421875 182.042969 259.421875 162.308594 " fill-opacity="1" fill-rule="nonzero"/></g><g fill="#FFFFFF" fill-opacity="1"><g transform="translate(90.6441, 276.224327)"><g><path d="M 1.414062 0 L 4.910156 0 L 4.910156 -0.28125 C 4.191406 -0.460938 3.882812 -0.898438 3.882812 -3.265625 L 3.882812 -9.355469 L 14.574219 -9.355469 L 14.574219 -3.265625 C 14.574219 -0.898438 14.265625 -0.460938 13.546875 -0.28125 L 13.546875 0 L 17.042969 0 L 17.042969 -0.28125 C 16.324219 -0.460938 16.015625 -0.898438 16.015625 -3.265625 L 16.015625 -14.730469 C 16.015625 -17.09375 16.324219 -17.53125 17.042969 -17.710938 L 17.042969 -17.996094 L 13.546875 -17.996094 L 13.546875 -17.710938 C 14.265625 -17.53125 14.574219 -17.09375 14.574219 -14.730469 L 14.574219 -9.71875 L 3.882812 -9.71875 L 3.882812 -14.730469 C 3.882812 -17.09375 4.191406 -17.53125 4.910156 -17.710938 L 4.910156 -17.996094 L 1.414062 -17.996094 L 1.414062 -17.710938 C 2.132812 -17.53125 2.441406 -17.09375 2.441406 -14.730469 L 2.441406 -3.265625 C 2.441406 -0.898438 2.132812 -0.460938 1.414062 -0.28125 Z M 1.414062 0 "/></g></g></g><g fill="#FFFFFF" fill-opacity="1"><g transform="translate(114.085186, 276.224327)"><g><path d="M 10.359375 0.257812 C 14.679688 0.257812 19.410156 -2.46875 19.410156 -8.921875 C 19.410156 -15.21875 14.703125 -18.199219 10.359375 -18.199219 C 4.910156 -18.199219 1.285156 -14.421875 1.285156 -8.972656 C 1.285156 -2.671875 5.988281 0.257812 10.359375 0.257812 Z M 2.671875 -10.359375 C 2.671875 -14.601562 5.269531 -17.710938 9.613281 -17.710938 C 14.421875 -17.710938 18.046875 -12.828125 18.046875 -7.582031 C 18.046875 -3.214844 15.347656 -0.230469 11.027344 -0.230469 C 6.195312 -0.230469 2.671875 -5.167969 2.671875 -10.359375 Z M 2.671875 -10.359375 "/></g></g></g><g fill="#FFFFFF" fill-opacity="1"><g transform="translate(139.762296, 276.224327)"><g><path d="M 1.515625 0 L 4.550781 0 L 4.550781 -0.28125 C 3.597656 -0.488281 3.007812 -1.054688 3.007812 -3.726562 L 3.007812 -15.9375 L 9.742188 -4.882812 L 10.101562 -4.882812 L 16.992188 -16.09375 L 16.992188 -3.265625 C 16.992188 -0.898438 16.683594 -0.460938 15.964844 -0.28125 L 15.964844 0 L 19.460938 0 L 19.460938 -0.28125 C 18.738281 -0.460938 18.429688 -0.898438 18.429688 -3.265625 L 18.429688 -14.265625 C 18.429688 -16.941406 18.972656 -17.507812 19.820312 -17.710938 L 19.820312 -17.996094 L 17.710938 -17.996094 L 17.019531 -16.863281 L 16.992188 -16.8125 L 10.566406 -6.347656 L 3.445312 -17.996094 L 1.15625 -17.996094 L 1.15625 -17.710938 C 2.003906 -17.507812 2.546875 -16.941406 2.546875 -14.265625 L 2.546875 -3.265625 C 2.546875 -0.898438 2.238281 -0.460938 1.515625 -0.28125 Z M 1.515625 0 "/></g></g></g><g fill="#FFFFFF" fill-opacity="1"><g transform="translate(165.979138, 276.224327)"><g><path d="M 1.414062 0 L 13.726562 0 L 13.957031 -3.058594 L 13.726562 -3.109375 C 12.878906 -0.949219 11.515625 -0.335938 9.203125 -0.335938 L 4.910156 -0.335938 C 4.242188 -0.335938 3.882812 -0.695312 3.882812 -1.363281 L 3.882812 -9.410156 L 8.097656 -9.410156 C 10.769531 -9.410156 11.335938 -8.816406 11.542969 -7.867188 L 11.824219 -7.867188 L 11.824219 -11.285156 L 11.542969 -11.285156 C 11.335938 -10.335938 10.769531 -9.742188 8.097656 -9.742188 L 3.882812 -9.742188 L 3.882812 -17.660156 L 8.507812 -17.660156 C 10.824219 -17.660156 12.234375 -16.890625 13.03125 -14.882812 L 13.265625 -14.933594 L 12.957031 -17.996094 L 1.414062 -17.996094 L 1.414062 -17.710938 C 2.132812 -17.53125 2.441406 -17.09375 2.441406 -14.730469 L 2.441406 -3.265625 C 2.441406 -0.898438 2.132812 -0.460938 1.414062 -0.28125 Z M 1.414062 0 "/></g></g></g><g fill="#FFFFFF" fill-opacity="1"><g transform="translate(185.950538, 276.224327)"><g><path d="M 7.300781 0.257812 C 10.4375 0.257812 13.136719 -1.722656 13.136719 -4.574219 C 13.136719 -7.273438 10.898438 -8.40625 7.839844 -9.664062 C 5.476562 -10.640625 2.777344 -11.695312 2.777344 -14.214844 C 2.777344 -16.605469 4.703125 -17.789062 6.8125 -17.789062 C 10.230469 -17.789062 11.621094 -16.015625 12.46875 -14.242188 L 12.671875 -14.292969 L 12.570312 -16.890625 C 11.929688 -17.300781 10.308594 -18.175781 7.480469 -18.175781 C 3.984375 -18.175781 1.59375 -16.347656 1.59375 -13.523438 C 1.59375 -11.078125 3.1875 -9.820312 6.65625 -8.457031 C 8.945312 -7.558594 11.902344 -6.347656 11.902344 -3.726562 C 11.902344 -1.671875 10 -0.128906 7.660156 -0.128906 C 3.882812 -0.128906 2.289062 -2.417969 1.414062 -4.882812 L 1.15625 -4.859375 L 1.335938 -1.566406 C 2.417969 -0.796875 4.550781 0.257812 7.300781 0.257812 Z M 7.300781 0.257812 "/></g></g></g><g fill="#FFFFFF" fill-opacity="1"><g transform="translate(205.02239, 276.224327)"><g><path d="M 5.425781 0 L 8.945312 0 L 8.945312 -0.28125 C 8.226562 -0.460938 7.917969 -0.898438 7.917969 -3.265625 L 7.917969 -17.660156 L 9.640625 -17.660156 C 11.953125 -17.660156 12.828125 -17.042969 13.597656 -15.398438 L 13.832031 -15.449219 L 13.675781 -17.996094 L 0.644531 -17.996094 L 0.488281 -15.449219 L 0.71875 -15.398438 C 1.492188 -17.042969 2.363281 -17.660156 4.679688 -17.660156 L 6.453125 -17.660156 L 6.453125 -3.265625 C 6.453125 -0.898438 6.144531 -0.460938 5.425781 -0.28125 Z M 5.425781 0 "/></g></g></g><g fill="#FFFFFF" fill-opacity="1"><g transform="translate(224.376955, 276.224327)"><g><path d="M 10.359375 0.257812 C 14.679688 0.257812 19.410156 -2.46875 19.410156 -8.921875 C 19.410156 -15.21875 14.703125 -18.199219 10.359375 -18.199219 C 4.910156 -18.199219 1.285156 -14.421875 1.285156 -8.972656 C 1.285156 -2.671875 5.988281 0.257812 10.359375 0.257812 Z M 2.671875 -10.359375 C 2.671875 -14.601562 5.269531 -17.710938 9.613281 -17.710938 C 14.421875 -17.710938 18.046875 -12.828125 18.046875 -7.582031 C 18.046875 -3.214844 15.347656 -0.230469 11.027344 -0.230469 C 6.195312 -0.230469 2.671875 -5.167969 2.671875 -10.359375 Z M 2.671875 -10.359375 "/></g></g></g><g fill="#FFFFFF" fill-opacity="1"><g transform="translate(250.054065, 276.224327)"><g><path d="M 14.523438 0.179688 C 15.089844 0.179688 15.605469 0.078125 15.785156 0 L 15.785156 -0.257812 C 15.628906 -0.230469 15.5 -0.207031 15.347656 -0.207031 C 14.523438 -0.207031 13.777344 -1.335938 12.699219 -4.0625 C 11.566406 -6.941406 11.15625 -8.921875 7.710938 -9.410156 C 11.003906 -9.742188 12.878906 -11.621094 12.878906 -14.085938 C 12.878906 -16.582031 10.925781 -17.996094 6.144531 -17.996094 L 1.414062 -17.996094 L 1.414062 -17.710938 C 2.132812 -17.53125 2.441406 -17.09375 2.441406 -14.730469 L 2.441406 -3.265625 C 2.441406 -0.898438 2.132812 -0.460938 1.414062 -0.28125 L 1.414062 0 L 4.910156 0 L 4.910156 -0.28125 C 4.191406 -0.460938 3.882812 -0.898438 3.882812 -3.265625 L 3.882812 -9.355469 L 5.65625 -9.355469 C 9.640625 -9.355469 9.949219 -6.964844 11.386719 -3.648438 C 12.390625 -1.335938 12.671875 0.179688 14.523438 0.179688 Z M 3.882812 -9.71875 L 3.882812 -17.609375 C 4.34375 -17.632812 4.753906 -17.660156 5.167969 -17.660156 C 9.640625 -17.660156 11.285156 -16.039062 11.285156 -13.523438 C 11.285156 -11.105469 9.589844 -9.71875 6.605469 -9.71875 Z M 3.882812 -9.71875 "/></g></g></g><g fill="#FFFFFF" fill-opacity="1"><g transform="translate(270.590899, 276.224327)"><g><path d="M 4.988281 0 L 8.507812 0 L 8.507812 -0.28125 C 7.789062 -0.460938 7.480469 -0.898438 7.480469 -3.265625 L 7.480469 -8.019531 L 11.492188 -15.140625 C 12.648438 -17.199219 13.367188 -17.53125 14.011719 -17.710938 L 14.011719 -17.996094 L 11.207031 -17.996094 L 11.207031 -17.710938 C 12.109375 -17.53125 11.929688 -16.683594 11.054688 -15.140625 L 7.300781 -8.507812 L 3.574219 -15.140625 C 2.417969 -17.199219 2.289062 -17.53125 3.007812 -17.710938 L 3.007812 -17.996094 L -0.257812 -17.996094 L -0.257812 -17.710938 C 0.257812 -17.53125 0.898438 -17.199219 2.03125 -15.140625 L 5.988281 -7.96875 L 6.015625 -3.265625 C 6.015625 -0.898438 5.707031 -0.460938 4.988281 -0.28125 Z M 4.988281 0 "/></g></g></g></svg>